<svg xmlns="http://www.w3.org/2000/svg" width="1998.932" height="1413.307" viewBox="0 0 1998.932 1413.307">
  <g id="barcode-_4_" transform="translate(0 437)">
    <path id="Path_10512" data-name="Path 10512" d="M0-259.361V-81.721H117.125V-319.875h234.25V-437H0Z"/>
    <path id="Path_10513" data-name="Path 10513" d="M422-378.438v58.563H656.25V-81.721H773.375V-437H422Z" transform="translate(1225.557)"/>
    <path id="Path_10514" data-name="Path 10514" d="M90,48.937V458.874H207.125V-361H90Z" transform="translate(261.375 220.716)"/>
    <path id="Path_10515" data-name="Path 10515" d="M151-68.188V224.624H268.125V-361H151Z" transform="translate(438.529 220.716)"/>
    <path id="Path_10516" data-name="Path 10516" d="M211,48.937V458.874H328.125V-361H211Z" transform="translate(612.778 220.716)"/>
    <path id="Path_10517" data-name="Path 10517" d="M271-68.188V224.624H388.125V-361H271Z" transform="translate(787.028 220.716)"/>
    <path id="Path_10518" data-name="Path 10518" d="M331-68.188V224.624H448.125V-361H331Z" transform="translate(961.278 220.716)"/>
    <path id="Path_10519" data-name="Path 10519" d="M392,48.937V458.874H509.125V-361H392Z" transform="translate(1138.432 220.716)"/>
    <path id="Path_10520" data-name="Path 10520" d="M151-122.147v58.562H268.515l-1.171-57.782-1.171-57.391-57.391-1.171L151-181.1Z" transform="translate(438.529 743.175)"/>
    <path id="Path_10521" data-name="Path 10521" d="M271-122.438v58.562H388.125V-181H271Z" transform="translate(787.028 743.466)"/>
    <path id="Path_10522" data-name="Path 10522" d="M333.733-178.267C332.171-177.1,331-150.548,331-119.7v55.83H448.125V-181H392.3C361.452-181,334.9-179.829,333.733-178.267Z" transform="translate(961.278 743.466)"/>
    <path id="Path_10523" data-name="Path 10523" d="M0,11.639V189.279H351.375V72.154H117.125V-166H0Z" transform="translate(0 787.028)"/>
    <path id="Path_10524" data-name="Path 10524" d="M656.25-46.923V72.154H422V189.279H773.375V-166H656.25Z" transform="translate(1225.557 787.028)"/>
  </g>
</svg>
