<svg xmlns="http://www.w3.org/2000/svg" width="15.973" height="14.616" viewBox="0 0 15.973 14.616">
  <g id="Group_1271" data-name="Group 1271" transform="translate(-295.037 -312.381)">
    <g id="right-arrows-_5_" transform="translate(-72.909 291.223) rotate(90)">
      <path id="Path_10511" data-name="Path 10511" d="M31.513-383.861a.66.66,0,0,0-.33.86,15.287,15.287,0,0,0,1.184,1.246c.62.617,1.125,1.131,1.125,1.143s-2.67.025-5.929.025H21.631l-.137.072a.6.6,0,0,0-.333.545.637.637,0,0,0,.252.579l.122.1,5.978.009c3.287,0,5.978.019,5.978.031s-.511.533-1.137,1.159c-1.227,1.227-1.256,1.262-1.224,1.539a.777.777,0,0,0,.312.508.7.7,0,0,0,.636.047c.156-.081,3.567-3.5,3.645-3.651a.728.728,0,0,0-.012-.576c-.093-.184-3.508-3.583-3.658-3.645A.748.748,0,0,0,31.513-383.861Z" transform="translate(0 0)" fill="#00CD97"/>
    </g>
    <g id="right-arrows-_4_" transform="translate(295.037 326.998) rotate(-90)">
      <path id="Path_10511-2" data-name="Path 10511" d="M10.354,7.916a.66.66,0,0,1-.33-.86A15.284,15.284,0,0,1,11.207,5.81c.62-.617,1.125-1.131,1.125-1.143S9.662,4.642,6.4,4.642H.472L.335,4.57A.6.6,0,0,1,0,4.025a.637.637,0,0,1,.252-.579l.121-.1,5.978-.009c3.287,0,5.978-.019,5.978-.031s-.511-.533-1.137-1.159C9.967.922,9.939.888,9.971.61A.777.777,0,0,1,10.282.1a.7.7,0,0,1,.636-.047c.156.081,3.567,3.5,3.645,3.651a.728.728,0,0,1-.012.576c-.093.184-3.508,3.583-3.657,3.645A.748.748,0,0,1,10.354,7.916Z" transform="translate(0)" fill="#686b70"/>
    </g>
  </g>
</svg>
