<svg xmlns="http://www.w3.org/2000/svg" width="22.094" height="22.116" viewBox="0 0 22.094 22.116">
  <g id="coin-_1_" transform="translate(-0.068 511.988)">
    <path id="Path_10491" data-name="Path 10491" d="M10.262-511.959a11.188,11.188,0,0,0-5.79,2.208A13.552,13.552,0,0,0,2.3-507.582a11,11,0,0,0-1.893,9.376,11.741,11.741,0,0,0,1.322,3.111,11.954,11.954,0,0,0,3.56,3.56,14.761,14.761,0,0,0,2.048,1,14.027,14.027,0,0,0,2.23.562c.272.039.817.082,1.21.1a10.936,10.936,0,0,0,8.045-3.137,10.459,10.459,0,0,0,2.195-3.007,9.686,9.686,0,0,0,.821-2.2,9.025,9.025,0,0,0,.32-2.679,8.881,8.881,0,0,0-.194-2.2,11.159,11.159,0,0,0-4.792-7.069,13.846,13.846,0,0,0-2.376-1.184A11.5,11.5,0,0,0,10.262-511.959Zm1.858,2.325a8.783,8.783,0,0,1,4.273,1.7,11.4,11.4,0,0,1,1.5,1.439,8.885,8.885,0,0,1,1.966,4.744,8.824,8.824,0,0,1-1.931,6.356,9.176,9.176,0,0,1-3.081,2.407,8.776,8.776,0,0,1-8.987-.933,11.309,11.309,0,0,1-1.491-1.435,8.774,8.774,0,0,1-.246-10.837,11.937,11.937,0,0,1,1.435-1.495A8.824,8.824,0,0,1,12.12-509.634Z" transform="translate(0 0)" fill="#00cd97"/>
    <path id="Path_10492" data-name="Path 10492" d="M177.988-412.7c-.164.069-.186.147-.2.769-.017.73-.017.726-.527.92a2.844,2.844,0,0,0-2.065,2.765,2.305,2.305,0,0,0,.229,1.145c.38.786,1.05,1.279,2.614,1.923a4.441,4.441,0,0,1,1.21.609.982.982,0,0,1-.354,1.793,4.4,4.4,0,0,1-2.8-.423c-.5-.251-.553-.207-.8.678-.212.748-.225.92-.082,1.046a4.395,4.395,0,0,0,1.754.635,1.915,1.915,0,0,1,.6.173c.06.056.078.19.1.665a3.817,3.817,0,0,0,.06.661c.06.134.238.169.843.169.765,0,.786-.013.83-.5.017-.19.035-.5.035-.7,0-.436.056-.5.518-.648a3.142,3.142,0,0,0,1.884-1.594,3,3,0,0,0-.048-2.653,3.865,3.865,0,0,0-2.307-1.789c-1.236-.514-1.642-.765-1.81-1.11a.7.7,0,0,1,.2-.9c.264-.238.423-.276,1.115-.272a3.469,3.469,0,0,1,1.633.324c.48.19.57.19.661-.026a11.277,11.277,0,0,0,.406-1.409.362.362,0,0,0-.1-.216,4.412,4.412,0,0,0-1.672-.557c-.4-.078-.4-.078-.428-.73-.035-.773-.017-.756-.812-.769A3.83,3.83,0,0,0,177.988-412.7Z" transform="translate(-167.488 -94.974)" fill="#00cd97"/>
  </g>
</svg>
