<svg xmlns="http://www.w3.org/2000/svg" width="25.982" height="20.543" viewBox="0 0 25.982 20.543">
  <g id="food-tray-_3_" transform="translate(-0.173 457.853)">
    <path id="Path_10501" data-name="Path 10501" d="M217.321-457.743a1.634,1.634,0,0,0-.594.345,2.139,2.139,0,0,0-.726,1.6v.325l.422-.041c.229-.02.955-.041,1.61-.041s1.382.02,1.615.041l.416.041v-.295a2.058,2.058,0,0,0-1.168-1.915,1.582,1.582,0,0,0-.813-.173A1.458,1.458,0,0,0,217.321-457.743Z" transform="translate(-204.865)" fill="#9d9d9e"/>
    <path id="Path_10502" data-name="Path 10502" d="M32.163-382.617a11.792,11.792,0,0,0-6.516,3.195,11.015,11.015,0,0,0-1.686,2,12.322,12.322,0,0,0-1.676,3.8A10.893,10.893,0,0,0,22-371.778v.234H45.785l-.03-.452a12.024,12.024,0,0,0-1.935-5.409,11.942,11.942,0,0,0-8-5.191,13.455,13.455,0,0,0-1.752-.1A9.67,9.67,0,0,0,32.163-382.617Z" transform="translate(-20.719 -71.332)" fill="#9d9d9e"/>
    <path id="Path_10503" data-name="Path 10503" d="M.514-132.883c-.345.229-.416.574-.269,1.29a3.354,3.354,0,0,0,1.046,1.818,4.367,4.367,0,0,0,1.488.747c.452.1,20.321.1,20.773,0a4.215,4.215,0,0,0,1.508-.772,3.4,3.4,0,0,0,1.087-2.23c.03-.452-.051-.67-.33-.853L25.645-133H.687Z" transform="translate(0 -308.353)" fill="#9d9d9e"/>
  </g>
</svg>
