<svg xmlns="http://www.w3.org/2000/svg" width="20.145" height="15.103" viewBox="0 0 20.145 15.103">
  <g id="menu-_4_" transform="translate(-0.386 447.7)">
    <path id="Path_10507" data-name="Path 10507" d="M1.337-447.676a1.328,1.328,0,0,0-.847.694,1.427,1.427,0,0,0-.008,1.045,1.225,1.225,0,0,0,.568.6l.248.134H19.625l.2-.106a1.147,1.147,0,0,0,.572-.552.9.9,0,0,0,.134-.583.9.9,0,0,0-.134-.583,1.209,1.209,0,0,0-.6-.568l-.177-.091L10.54-447.7C5.542-447.7,1.4-447.692,1.337-447.676Z" fill="#a1a1a2"/>
    <path id="Path_10508" data-name="Path 10508" d="M1.337-287.676a1.328,1.328,0,0,0-.847.694,1.427,1.427,0,0,0-.008,1.044,1.225,1.225,0,0,0,.568.6l.248.134H19.625l.2-.106a1.147,1.147,0,0,0,.572-.552.9.9,0,0,0,.134-.583.9.9,0,0,0-.134-.583,1.209,1.209,0,0,0-.6-.568l-.177-.091L10.54-287.7C5.542-287.7,1.4-287.692,1.337-287.676Z" transform="translate(0 -153.694)" fill="#a1a1a2"/>
    <path id="Path_10509" data-name="Path 10509" d="M1.337-127.676a1.328,1.328,0,0,0-.847.694,1.427,1.427,0,0,0-.008,1.044,1.225,1.225,0,0,0,.568.6l.248.134H19.625l.2-.106a1.147,1.147,0,0,0,.572-.552.9.9,0,0,0,.134-.583.9.9,0,0,0-.134-.583,1.209,1.209,0,0,0-.6-.568l-.177-.091L10.54-127.7C5.542-127.7,1.4-127.692,1.337-127.676Z" transform="translate(0 -307.388)" fill="#a1a1a2"/>
  </g>
</svg>
